# xmcd
#
# Track frame offsets:
#	150
#	16183
#	35732
#	53424
#	72939
#	96571
#	117485
#	136367
#	152208
#	169490
#
# Disc length: 2509 seconds
#
# Revision: 12
# Processed by: cddbd v1.5.2PL0 Copyright (c) Steve Scherf et al.
# Submitted via: EZCDAudioConverter 7.1.5.1
#
DISCID=8c09cb0a
DTITLE=阿杜 - 天黑
DYEAR=2002
DGENRE=
TTITLE0=他一定很爱你
TTITLE1=天黑
TTITLE2=天天看到你
TTITLE3=一个人住
TTITLE4=Andy
TTITLE5=撕夜
TTITLE6=无法阻挡
TTITLE7=你很好
TTITLE8=离别
TTITLE9=Right Here Waiting
EXTD=
EXTT0=
EXTT1=
EXTT2=
EXTT3=
EXTT4=
EXTT5=
EXTT6=
EXTT7=
EXTT8=
EXTT9=
PLAYORDER=
